<?xml version="1.0" encoding="UTF-8" standalone="no"?>
<!-- Created with Inkscape (http://www.inkscape.org/) -->

<svg
   width="31.999998"
   height="31.999998"
   viewBox="0 0 8.4666661 8.4666661"
   version="1.1"
   id="svg1"
   xmlns:xlink="http://www.w3.org/1999/xlink"
   xmlns="http://www.w3.org/2000/svg"
   xmlns:svg="http://www.w3.org/2000/svg">
  <defs
     id="defs1" />
  <g
     id="layer3"
     style="display:none">
    <path
       style="display:inline;fill:#ffffff"
       id="path7"
       d="m 64.03045,192.81486 42.60718,73.79781 -85.214367,0 z"
       transform="matrix(0.05210216,0,0,0.06503738,0.89720867,-9.7184718)" />
  </g>
  <g
     id="layer5">
    <path
       style="display:none;fill:currentColor;fill-opacity:1;stroke-width:0.264583"
       d="M 39.648794,152.18074 V 69.321441 l -17.138511,12.534135 9.52662,10.440734 -7.604364,43.94155 z m 0,0 V 69.321441 l 17.138511,12.534135 -9.52662,10.440734 7.604364,43.94155 z"
       id="path2"
       transform="matrix(0.06440595,0,0,0.06440595,1.6797151,-1.500283)" />
    <g
       id="layer6"
       style="display:inline">
      <path
         style="display:inline;fill:currentColor;fill-opacity:1;stroke-width:0.264583"
         d="M 39.648794,152.18074 V 69.321441 l -17.138511,12.534135 9.52662,10.440734 -7.604364,43.94155 z m 0,0 V 69.321441 l 17.138511,12.534135 -9.52662,10.440734 7.604364,43.94155 z"
         id="path8"
         transform="matrix(0.05074815,0,0,0.05586515,2.2212305,-0.79829368)" />
      <path
         style="display:inline;fill:currentColor;stroke-width:0.244"
         id="path12"
         d="M 2.1398268,4.4899313 2.548828,5.318658 3.4633822,5.4515507 2.8016047,6.0966246 2.957829,7.0074834 2.1398268,6.5774344 1.3218245,7.0074834 1.4780489,6.0966246 0.81627134,5.4515506 1.7308255,5.318658 Z"
         transform="matrix(1.2006439,0,0,1.048433,1.6641633,0.83753205)" />
    </g>
  </g>
  <g
     id="layer4"
     style="display:none">
    <path
       d="M 5.0126138,4.5067016 4.9030598,4.2695067 A 2.1085691,2.1085691 0 0 1 4.2333332,4.3826781 2.1085691,2.1085691 0 0 1 3.5636067,4.2695067 L 3.4540526,4.5067016 A 2.3669515,2.3669515 0 0 0 4.2333332,4.6410603 2.3669515,2.3669515 0 0 0 5.0126138,4.5067016 Z"
       style="display:inline;fill:#000000;fill-opacity:0.402194;stroke-width:0.0191289"
       id="path3" />
    <circle
       style="display:inline;fill:#ffffff;stroke-width:0.0170407"
       id="path1"
       cx="4.2333336"
       cy="2.2741737"
       r="2.1085691" />
  </g>
  <g
     id="layer2"
     style="display:none">
    <ellipse
       style="fill:currentColor;fill-opacity:1;stroke-width:0.243767"
       id="path4"
       cx="4.2333331"
       cy="2.2015805"
       rx="1.1046329"
       ry="1.7265508" />
    <ellipse
       style="fill:#000000;fill-opacity:1;stroke-width:0.236212"
       id="path5"
       cx="4.2333331"
       cy="2.422287"
       rx="0.58465207"
       ry="0.99573559" />
    <ellipse
       style="fill:#ffffff;fill-opacity:1;stroke-width:0.110145"
       id="path6"
       ry="0.13544048"
       rx="0.063946314"
       cy="4.2265644"
       cx="2.4007874"
       transform="rotate(-22.481801)" />
    <ellipse
       style="fill:#ffffff;fill-opacity:1;stroke-width:0.276489"
       id="path6-8"
       ry="0.22304851"
       rx="0.20341526"
       cy="1.7941612"
       cx="4.4372425" />
    <path
       d="M 4.2333333,0.47490641 A 1.1046329,1.7265508 0 0 0 3.1284912,2.201416 1.1046329,1.7265508 0 0 0 3.1357259,2.3631632 1.1046329,1.7265508 0 0 1 4.2333333,0.79788411 1.1046329,1.7265508 0 0 1 5.3319743,2.3481771 1.1046329,1.7265508 0 0 0 5.3381755,2.201416 1.1046329,1.7265508 0 0 0 4.2333333,0.47490641 Z"
       style="opacity:1;fill:#000000;fill-opacity:0.402194;stroke-width:0.244;stroke-dasharray:none"
       id="path11" />
  </g>
  <g
     id="layer1"
     style="display:none">
    <g
       id="g16"
       transform="translate(-0.06614583,0.85989582)">
      <path
         style="fill:currentColor;fill-opacity:1;stroke-width:0.306488"
         id="path10"
         d="M 4.2167966,1.513086 A 0.85162759,0.85162759 0 0 1 3.365169,2.3647135 0.85162759,0.85162759 0 0 1 2.5135415,1.513086 0.85162759,0.85162759 0 0 1 3.365169,0.66145837 0.85162759,0.85162759 0 0 1 4.2167966,1.513086 Z" />
      <ellipse
         style="fill:#000000;fill-opacity:1;stroke-width:0.370174"
         id="path14"
         cx="3.365169"
         cy="1.5598581"
         rx="0.74827468"
         ry="0.63251954" />
      <path
         d="M 3.3651692,0.66145834 A 0.85162759,0.85162759 0 0 0 2.5135416,1.513086 0.85162759,0.85162759 0 0 0 2.5176758,1.5668294 0.85162759,0.85162759 0 0 1 3.3651692,0.76894531 0.85162759,0.85162759 0 0 1 4.214213,1.55236 0.85162759,0.85162759 0 0 0 4.2167968,1.513086 0.85162759,0.85162759 0 0 0 3.3651692,0.66145834 Z"
         style="fill:#000000;fill-opacity:0.402421;stroke-width:0.306488"
         id="path22" />
      <ellipse
         style="fill:#ffffff;fill-opacity:1;stroke-width:0.141"
         id="path23"
         cx="3.7207031"
         cy="1.1740887"
         rx="0.1405599"
         ry="0.13642578" />
      <ellipse
         style="fill:#ffffff;fill-opacity:1;stroke-width:0.118599"
         id="path23-8"
         cx="1.3866647"
         cy="-2.2001901"
         rx="0.17027217"
         ry="0.11717707"
         transform="matrix(0.64581159,0.76349681,-0.91356847,-0.40668496,0,0)" />
    </g>
    <use
       x="0"
       y="0"
       xlink:href="#g16"
       id="use16"
       transform="translate(1.8190104)" />
  </g>
</svg>
