<?xml version="1.0" encoding="UTF-8" standalone="no"?>
<!-- Created with Inkscape (http://www.inkscape.org/) -->

<svg
   width="32"
   height="32"
   viewBox="0 0 8.4666666 8.4666666"
   version="1.1"
   id="svg1"
   sodipodi:docname="player_plain.svg"
   inkscape:version="1.3.2 (091e20e, 2023-11-25, custom)"
   inkscape:export-filename="player_tie1.svg"
   inkscape:export-xdpi="96"
   inkscape:export-ydpi="96"
   xmlns:inkscape="http://www.inkscape.org/namespaces/inkscape"
   xmlns:sodipodi="http://sodipodi.sourceforge.net/DTD/sodipodi-0.dtd"
   xmlns:xlink="http://www.w3.org/1999/xlink"
   xmlns="http://www.w3.org/2000/svg"
   xmlns:svg="http://www.w3.org/2000/svg">
  <sodipodi:namedview
     id="namedview1"
     pagecolor="#212121"
     bordercolor="#000000"
     borderopacity="0.25"
     inkscape:showpageshadow="2"
     inkscape:pageopacity="0.0"
     inkscape:pagecheckerboard="0"
     inkscape:deskcolor="#d1d1d1"
     inkscape:document-units="px"
     inkscape:zoom="22.627417"
     inkscape:cx="18.804621"
     inkscape:cy="24.549864"
     inkscape:window-width="1920"
     inkscape:window-height="1017"
     inkscape:window-x="760"
     inkscape:window-y="62"
     inkscape:window-maximized="1"
     inkscape:current-layer="layer6" />
  <defs
     id="defs1">
    <inkscape:path-effect
       effect="mirror_symmetry"
       start_point="39.648794,69.321441"
       end_point="39.648794,152.18074"
       center_point="39.648794,110.75109"
       id="path-effect3"
       is_visible="true"
       lpeversion="1.2"
       lpesatellites=""
       mode="X"
       discard_orig_path="false"
       fuse_paths="false"
       oposite_fuse="false"
       split_items="false"
       split_open="false"
       link_styles="false" />
    <inkscape:path-effect
       effect="clone_original"
       linkeditem=""
       id="path-effect22"
       is_visible="true"
       lpeversion="1"
       method="d"
       attributes=""
       css_properties=""
       allow_transforms="false" />
    <inkscape:path-effect
       effect="clone_original"
       linkeditem=""
       id="path-effect20"
       is_visible="true"
       lpeversion="1"
       method="d"
       attributes=""
       css_properties=""
       allow_transforms="false" />
    <inkscape:path-effect
       effect="clone_original"
       linkeditem=""
       id="path-effect18"
       is_visible="true"
       lpeversion="1"
       method="d"
       attributes=""
       css_properties=""
       allow_transforms="false" />
    <inkscape:path-effect
       effect="clone_original"
       linkeditem=""
       id="path-effect16"
       is_visible="true"
       lpeversion="1"
       method="d"
       attributes=""
       css_properties=""
       allow_transforms="true" />
    <inkscape:path-effect
       effect="clone_original"
       linkeditem=""
       id="path-effect14"
       is_visible="true"
       lpeversion="1"
       method="d"
       attributes=""
       css_properties=""
       allow_transforms="false" />
    <inkscape:path-effect
       effect="mirror_symmetry"
       start_point="39.648794,69.321441"
       end_point="39.648794,152.18074"
       center_point="39.648794,110.75109"
       id="path-effect9"
       is_visible="true"
       lpeversion="1.2"
       lpesatellites=""
       mode="X"
       discard_orig_path="false"
       fuse_paths="false"
       oposite_fuse="false"
       split_items="false"
       split_open="false"
       link_styles="false" />
  </defs>
  <g
     inkscape:groupmode="layer"
     id="layer3"
     inkscape:label="Body"
     style="display:inline">
    <path
       sodipodi:type="star"
       style="display:inline;fill:#ffffff"
       id="path7"
       inkscape:flatsided="true"
       sodipodi:sides="3"
       sodipodi:cx="64.030449"
       sodipodi:cy="242.0134"
       sodipodi:r1="49.19854"
       sodipodi:r2="24.59927"
       sodipodi:arg1="-1.5707963"
       sodipodi:arg2="-0.52359878"
       inkscape:rounded="0"
       inkscape:randomized="0"
       d="m 64.03045,192.81486 42.60718,73.79781 -85.214367,0 z"
       inkscape:transform-center-y="-0.39668721"
       transform="matrix(0.05210216,0,0,0.06503738,0.89720867,-9.7184718)" />
  </g>
  <g
     inkscape:groupmode="layer"
     id="layer5"
     inkscape:label="Ties">
    <path
       style="display:none;fill:currentColor;fill-opacity:1;stroke-width:0.264583"
       d="M 39.648794,152.18074 V 69.321441 l -17.138511,12.534135 9.52662,10.440734 -7.604364,43.94155 z m 0,0 V 69.321441 l 17.138511,12.534135 -9.52662,10.440734 7.604364,43.94155 z"
       id="path2"
       inkscape:path-effect="#path-effect3"
       inkscape:original-d="M 39.648794,152.18074 V 69.321441 l -17.138511,12.534135 9.52662,10.440734 -7.604364,43.94155 z"
       sodipodi:nodetypes="cccccc"
       transform="matrix(0.06440595,0,0,0.06440595,1.6797151,-1.500283)" />
    <g
       inkscape:groupmode="layer"
       id="layer6"
       inkscape:label="Tie2">
      <g
         id="g38">
        <path
           d="M 4.2333333,2.9646769 3.1295247,3.7718628 3.742924,4.4441731 3.3600016,6.6595418 3.7806478,6.5985636 4.2333333,5.6807902 Z"
           style="display:inline;fill:currentColor;stroke-width:0.264583"
           id="path38" />
        <path
           d="M 4.2333333,2.9646769 V 5.6807902 L 4.6860188,6.5985636 5.106665,6.6595418 4.7237426,4.4441731 5.3371419,3.7718628 Z"
           style="display:inline;fill:currentColor;stroke-width:0.264583"
           id="path37" />
        <path
           d="M 5.2048502,7.2274658 5.6988769,6.7458414 5.106665,6.6595418 Z"
           style="stroke-width:0.244"
           id="path36" />
        <path
           d="m 3.2618164,7.2274658 0.098185,-0.567924 -0.5922119,0.0863 z"
           style="stroke-width:0.244"
           id="path35" />
        <path
           d="M 4.0374796,8.0956298 3.4897094,7.5220214 3.3274454,8.4687337 Z"
           style="stroke-width:0.244"
           id="path34"
           sodipodi:nodetypes="cccc" />
        <path
           d="m 4.2333333,5.6807902 -0.4526855,0.9177734 -0.4206462,0.060978 -0.098185,0.567924 0.2387451,0.2325439 -0.010852,0.062012 0.5746419,0.5426025 0.168982,-0.07183 z"
           style="stroke-width:0.244"
           id="path33"
           sodipodi:nodetypes="ccccccccc" />
        <path
           d="M 4.2333333,5.6807902 V 7.9927937 L 4.429187,8.0956298 4.9769572,7.5220214 4.9661051,7.4600097 5.2048502,7.2274658 5.106665,6.6595418 4.6860188,6.5985636 Z"
           style="stroke-width:0.244"
           id="path32" />
        <path
           d="M 4.429187,8.0956298 5.1392212,8.4687337 4.9769572,7.5220214 Z"
           style="stroke-width:0.244"
           id="path31" />
      </g>
    </g>
  </g>
  <g
     inkscape:groupmode="layer"
     id="layer4"
     inkscape:label="Head">
    <path
       d="M 5.0126138,4.5067016 4.9030598,4.2695067 A 2.1085691,2.1085691 0 0 1 4.2333332,4.3826781 2.1085691,2.1085691 0 0 1 3.5636067,4.2695067 L 3.4540526,4.5067016 A 2.3669515,2.3669515 0 0 0 4.2333332,4.6410603 2.3669515,2.3669515 0 0 0 5.0126138,4.5067016 Z"
       style="display:inline;fill:#000000;fill-opacity:0.402194;stroke-width:0.0191289"
       id="path3" />
    <circle
       style="display:inline;fill:#ffffff;stroke-width:0.0170407"
       id="path1"
       cx="4.2333336"
       cy="2.2741737"
       r="2.1085691" />
  </g>
  <g
     inkscape:groupmode="layer"
     id="layer2"
     inkscape:label="Eye"
     style="display:inline">
    <ellipse
       style="fill:currentColor;fill-opacity:1;stroke-width:0.243767"
       id="path4"
       cx="4.2333331"
       cy="2.2015805"
       rx="1.1046329"
       ry="1.7265508" />
    <ellipse
       style="fill:#000000;fill-opacity:1;stroke-width:0.236212"
       id="path5"
       cx="4.2333331"
       cy="2.422287"
       rx="0.58465207"
       ry="0.99573559" />
    <ellipse
       style="fill:#ffffff;fill-opacity:1;stroke-width:0.110145"
       id="path6"
       ry="0.13544048"
       rx="0.063946314"
       cy="4.2265644"
       cx="2.4007874"
       transform="rotate(-22.481801)" />
    <ellipse
       style="fill:#ffffff;fill-opacity:1;stroke-width:0.276489"
       id="path6-8"
       ry="0.22304851"
       rx="0.20341526"
       cy="1.7941612"
       cx="4.4372425" />
    <path
       d="M 4.2333333,0.47490641 A 1.1046329,1.7265508 0 0 0 3.1284912,2.201416 1.1046329,1.7265508 0 0 0 3.1357259,2.3631632 1.1046329,1.7265508 0 0 1 4.2333333,0.79788411 1.1046329,1.7265508 0 0 1 5.3319743,2.3481771 1.1046329,1.7265508 0 0 0 5.3381755,2.201416 1.1046329,1.7265508 0 0 0 4.2333333,0.47490641 Z"
       style="opacity:1;fill:#000000;fill-opacity:0.402194;stroke-width:0.244;stroke-dasharray:none"
       id="path11" />
  </g>
  <g
     inkscape:groupmode="layer"
     id="layer1"
     inkscape:label="Eye2"
     style="display:none">
    <g
       id="g16"
       transform="translate(-0.06614583,0.85989582)">
      <path
         style="fill:currentColor;fill-opacity:1;stroke-width:0.306488"
         id="path10"
         d="M 4.2167966,1.513086 A 0.85162759,0.85162759 0 0 1 3.365169,2.3647135 0.85162759,0.85162759 0 0 1 2.5135415,1.513086 0.85162759,0.85162759 0 0 1 3.365169,0.66145837 0.85162759,0.85162759 0 0 1 4.2167966,1.513086 Z"
         sodipodi:type="arc"
         sodipodi:ry="0.85162759"
         sodipodi:rx="0.85162759"
         sodipodi:cy="1.513086"
         sodipodi:cx="3.365169"
         inkscape:path-effect="#path-effect14" />
      <ellipse
         style="fill:#000000;fill-opacity:1;stroke-width:0.370174"
         id="path14"
         cx="3.365169"
         cy="1.5598581"
         rx="0.74827468"
         ry="0.63251954" />
      <path
         d="M 3.3651692,0.66145834 A 0.85162759,0.85162759 0 0 0 2.5135416,1.513086 0.85162759,0.85162759 0 0 0 2.5176758,1.5668294 0.85162759,0.85162759 0 0 1 3.3651692,0.76894531 0.85162759,0.85162759 0 0 1 4.214213,1.55236 0.85162759,0.85162759 0 0 0 4.2167968,1.513086 0.85162759,0.85162759 0 0 0 3.3651692,0.66145834 Z"
         style="fill:#000000;fill-opacity:0.402421;stroke-width:0.306488"
         id="path22" />
      <ellipse
         style="fill:#ffffff;fill-opacity:1;stroke-width:0.141"
         id="path23"
         cx="3.7207031"
         cy="1.1740887"
         rx="0.1405599"
         ry="0.13642578" />
      <ellipse
         style="fill:#ffffff;fill-opacity:1;stroke-width:0.118599"
         id="path23-8"
         cx="1.3866647"
         cy="-2.2001901"
         rx="0.17027217"
         ry="0.11717707"
         transform="matrix(0.64581159,0.76349681,-0.91356847,-0.40668496,0,0)"
         inkscape:label="path23-8" />
    </g>
    <use
       x="0"
       y="0"
       xlink:href="#g16"
       id="use16"
       transform="translate(1.8190104)" />
  </g>
</svg>
