<?xml version="1.0" encoding="UTF-8" standalone="no"?>
<!-- Created with Inkscape (http://www.inkscape.org/) -->

<svg
   width="31.999998"
   height="31.999998"
   viewBox="0 0 8.4666661 8.4666661"
   version="1.1"
   id="svg1"
   xmlns:xlink="http://www.w3.org/1999/xlink"
   xmlns="http://www.w3.org/2000/svg"
   xmlns:svg="http://www.w3.org/2000/svg">
  <defs
     id="defs1" />
  <g
     id="layer1"
     style="display:inline">
    <g
       id="g16"
       transform="translate(-0.06614583,0.85989582)">
      <path
         style="fill:currentColor;fill-opacity:1;stroke-width:0.306488"
         id="path10"
         d="M 4.2167966,1.513086 A 0.85162759,0.85162759 0 0 1 3.365169,2.3647135 0.85162759,0.85162759 0 0 1 2.5135415,1.513086 0.85162759,0.85162759 0 0 1 3.365169,0.66145837 0.85162759,0.85162759 0 0 1 4.2167966,1.513086 Z" />
      <ellipse
         style="fill:#000000;fill-opacity:1;stroke-width:0.370174"
         id="path14"
         cx="3.365169"
         cy="1.5598581"
         rx="0.74827468"
         ry="0.63251954" />
      <path
         d="M 3.3651692,0.66145834 A 0.85162759,0.85162759 0 0 0 2.5135416,1.513086 0.85162759,0.85162759 0 0 0 2.5176758,1.5668294 0.85162759,0.85162759 0 0 1 3.3651692,0.76894531 0.85162759,0.85162759 0 0 1 4.214213,1.55236 0.85162759,0.85162759 0 0 0 4.2167968,1.513086 0.85162759,0.85162759 0 0 0 3.3651692,0.66145834 Z"
         style="fill:#000000;fill-opacity:0.402421;stroke-width:0.306488"
         id="path22" />
      <ellipse
         style="fill:#ffffff;fill-opacity:1;stroke-width:0.141"
         id="path23"
         cx="3.7207031"
         cy="1.1740887"
         rx="0.1405599"
         ry="0.13642578" />
      <ellipse
         style="fill:#ffffff;fill-opacity:1;stroke-width:0.118599"
         id="path23-8"
         cx="1.3866647"
         cy="-2.2001901"
         rx="0.17027217"
         ry="0.11717707"
         transform="matrix(0.64581159,0.76349681,-0.91356847,-0.40668496,0,0)" />
    </g>
    <use
       x="0"
       y="0"
       xlink:href="#g16"
       id="use16"
       transform="translate(1.8190104)" />
  </g>
</svg>
