<?xml version="1.0" encoding="UTF-8" standalone="no"?>
<!-- Created with Inkscape (http://www.inkscape.org/) -->

<svg
   width="31.999998"
   height="31.999998"
   viewBox="0 0 8.4666661 8.4666661"
   version="1.1"
   id="svg1"
   xmlns="http://www.w3.org/2000/svg"
   xmlns:svg="http://www.w3.org/2000/svg">
  <defs
     id="defs1" />
  <g
     id="layer3"
     style="display:inline">
    <path
       style="fill:#ffffff"
       id="path7"
       d="m 64.03045,192.81486 42.60718,73.79781 -85.214367,0 z"
       transform="matrix(0.05210216,0,0,0.06503738,0.89720867,-9.7184718)" />
    <path
       style="fill:currentColor;fill-opacity:1;stroke-width:0.264583"
       d="M 39.648794,152.18074 V 69.321441 l -17.138511,12.534135 9.52662,10.440734 -7.604364,43.94155 z m 0,0 V 69.321441 l 17.138511,12.534135 -9.52662,10.440734 7.604364,43.94155 z"
       id="path9"
       transform="matrix(0.06440595,0,0,0.06440595,1.6797151,-1.500283)" />
    <path
       d="M 5.0126138,4.5067016 4.9030598,4.2695067 A 2.1085691,2.1085691 0 0 1 4.2333332,4.3826781 2.1085691,2.1085691 0 0 1 3.5636067,4.2695067 L 3.4540526,4.5067016 A 2.3669515,2.3669515 0 0 0 4.2333332,4.6410603 2.3669515,2.3669515 0 0 0 5.0126138,4.5067016 Z"
       style="fill:#000000;fill-opacity:0.402194;stroke-width:0.0191289"
       id="path3" />
    <circle
       style="fill:#ffffff;stroke-width:0.0170407"
       id="path1"
       cx="4.2333336"
       cy="2.2741737"
       r="2.1085691" />
  </g>
</svg>
